<?xml version="1.0" standalone="no"?><!DOCTYPE svg PUBLIC "-//W3C//DTD SVG 1.1//EN" "http://www.w3.org/Graphics/SVG/1.1/DTD/svg11.dtd"><svg t="1657365767242" class="icon" viewBox="0 0 1024 1024" version="1.1" xmlns="http://www.w3.org/2000/svg" p-id="28198" xmlns:xlink="http://www.w3.org/1999/xlink" width="200" height="200"><defs><style type="text/css">@font-face { font-family: element-icons; src: url("chrome-extension://moombeodfomdpjnpocobemoiaemednkg/fonts/element-icons.woff") format("woff"), url("chrome-extension://moombeodfomdpjnpocobemoiaemednkg/fonts/element-icons.ttf ") format("truetype"); }
@font-face { font-family: feedback-iconfont; src: url("//at.alicdn.com/t/font_1031158_u69w8yhxdu.woff2?t=1630033759944") format("woff2"), url("//at.alicdn.com/t/font_1031158_u69w8yhxdu.woff?t=1630033759944") format("woff"), url("//at.alicdn.com/t/font_1031158_u69w8yhxdu.ttf?t=1630033759944") format("truetype"); }
</style></defs><path d="M932.571429 54.857143H91.428571c-20.228571 0-36.571429 16.342857-36.571428 36.571428v841.142858c0 20.228571 16.342857 36.571429 36.571428 36.571428h841.142858c20.228571 0 36.571429-16.342857 36.571428-36.571428V91.428571c0-20.228571-16.342857-36.571429-36.571428-36.571428zM752.571429 699.885714c-13.142857 1.6-51.314286-60.228571-51.314286-60.228571 0 35.771429-18.514286 82.514286-58.4 116.342857 19.314286 5.942857 62.742857 21.942857 52.457143 39.314286-8.342857 14.057143-143.542857 9.028571-182.628572 4.571428-39.085714 4.342857-174.285714 9.485714-182.628571-4.571428-10.4-17.371429 33.028571-33.371429 52.342857-39.314286-40-33.714286-58.4-80.457143-58.4-116.342857 0 0-38.171429 61.828571-51.314286 60.228571-6.171429-0.8-14.171429-33.828571 10.742857-113.942857 11.771429-37.714286 25.142857-69.142857 45.942858-120.914286-3.542857-133.6 51.771429-245.714286 183.314285-245.714285 130.171429 0 186.628571 109.828571 183.314286 245.714285 20.685714 51.657143 34.171429 83.2 45.942857 120.914286 24.8 80.114286 16.685714 113.257143 10.628572 113.942857z" p-id="28199" fill="#1296db"></path></svg>